STARTFONT 2.1
FONT c12bluci
SIZE 12 78 78
FONTBOUNDINGBOX 14 13 0 -3
STARTPROPERTIES 4
Copyright "Copyright (c) 1988 AT&T, Inc"
FONT_ASCENT 10
FONT_DESCENT 3
DEFAULT_CHAR 32
ENDPROPERTIES
CHARS 97
STARTCHAR C001
ENCODING 1
SWIDTH 108 0
DWIDTH 9 0
BBX 9 13 0 -3
BITMAP
0000
0000
0000
0000
0000
0000
0000
0000
0000
0000
0000
0000
0000
ENDCHAR
STARTCHAR C002
ENCODING 2
SWIDTH 168 0
DWIDTH 14 0
BBX 14 13 0 -3
BITMAP
0000
0000
0000
0cc0
1980
3300
6640
4cc0
1980
3300
6600
c000
0000
ENDCHAR
STARTCHAR C040
ENCODING 32
SWIDTH 84 0
DWIDTH 7 0
BBX 7 13 0 -3
BITMAP
00
00
00
00
00
00
00
00
00
00
00
00
00
ENDCHAR
STARTCHAR !
ENCODING 33
SWIDTH 60 0
DWIDTH 5 0
BBX 5 13 0 -3
BITMAP
00
00
30
30
30
30
30
10
00
30
30
00
00
ENDCHAR
STARTCHAR "
ENCODING 34
SWIDTH 84 0
DWIDTH 7 0
BBX 7 13 0 -3
BITMAP
00
6c
6c
24
48
00
00
00
00
00
00
00
00
ENDCHAR
STARTCHAR #
ENCODING 35
SWIDTH 108 0
DWIDTH 9 0
BBX 9 13 0 -3
BITMAP
0000
0000
3600
3600
7f00
3600
3600
7f00
3600
3600
3600
0000
0000
ENDCHAR
STARTCHAR $
ENCODING 36
SWIDTH 108 0
DWIDTH 9 0
BBX 9 13 0 -3
BITMAP
0000
0800
3e00
6900
6800
7800
3e00
0f00
0b00
4b00
3e00
0800
0000
ENDCHAR
STARTCHAR %
ENCODING 37
SWIDTH 132 0
DWIDTH 11 0
BBX 11 13 0 -3
BITMAP
0000
0000
3800
6c80
6d00
3a00
0400
0b80
16c0
26c0
0380
0000
0000
ENDCHAR
STARTCHAR &
ENCODING 38
SWIDTH 120 0
DWIDTH 10 0
BBX 10 13 0 -3
BITMAP
0000
0000
3c00
6600
6600
3400
1980
2d00
6600
6300
3d80
0000
0000
ENDCHAR
STARTCHAR '
ENCODING 39
SWIDTH 48 0
DWIDTH 4 0
BBX 4 13 0 -3
BITMAP
00
60
60
20
40
00
00
00
00
00
00
00
00
ENDCHAR
STARTCHAR (
ENCODING 40
SWIDTH 84 0
DWIDTH 7 0
BBX 7 13 0 -3
BITMAP
00
0c
18
30
30
30
30
30
30
30
18
0c
00
ENDCHAR
STARTCHAR )
ENCODING 41
SWIDTH 60 0
DWIDTH 5 0
BBX 5 13 0 -3
BITMAP
00
c0
60
30
30
30
30
30
30
30
60
c0
00
ENDCHAR
STARTCHAR *
ENCODING 42
SWIDTH 84 0
DWIDTH 7 0
BBX 7 13 0 -3
BITMAP
00
00
10
54
38
54
10
00
00
00
00
00
00
ENDCHAR
STARTCHAR +
ENCODING 43
SWIDTH 108 0
DWIDTH 9 0
BBX 9 13 0 -3
BITMAP
0000
0000
0000
0800
0800
0800
7f00
0800
0800
0800
0000
0000
0000
ENDCHAR
STARTCHAR ,
ENCODING 44
SWIDTH 48 0
DWIDTH 4 0
BBX 4 13 0 -3
BITMAP
00
00
00
00
00
00
00
00
00
60
60
20
40
ENDCHAR
STARTCHAR -
ENCODING 45
SWIDTH 108 0
DWIDTH 9 0
BBX 9 13 0 -3
BITMAP
0000
0000
0000
0000
0000
0000
7f00
0000
0000
0000
0000
0000
0000
ENDCHAR
STARTCHAR .
ENCODING 46
SWIDTH 48 0
DWIDTH 4 0
BBX 4 13 0 -3
BITMAP
00
00
00
00
00
00
00
00
00
60
60
00
00
ENDCHAR
STARTCHAR /
ENCODING 47
SWIDTH 96 0
DWIDTH 8 0
BBX 8 13 0 -3
BITMAP
00
00
06
06
0c
0c
18
30
30
60
60
00
00
ENDCHAR
STARTCHAR 0
ENCODING 48
SWIDTH 108 0
DWIDTH 9 0
BBX 9 13 0 -3
BITMAP
0000
0000
3e00
6300
6300
6300
6300
6300
6300
6300
3e00
0000
0000
ENDCHAR
STARTCHAR 1
ENCODING 49
SWIDTH 108 0
DWIDTH 9 0
BBX 9 13 0 -3
BITMAP
0000
0000
0c00
3c00
0c00
0c00
0c00
0c00
0c00
0c00
0c00
0000
0000
ENDCHAR
STARTCHAR 2
ENCODING 50
SWIDTH 108 0
DWIDTH 9 0
BBX 9 13 0 -3
BITMAP
0000
0000
3e00
6300
0300
0700
0e00
1800
3000
7f00
7f00
0000
0000
ENDCHAR
STARTCHAR 3
ENCODING 51
SWIDTH 108 0
DWIDTH 9 0
BBX 9 13 0 -3
BITMAP
0000
0000
3e00
6300
0300
0300
1e00
0300
0300
6300
3e00
0000
0000
ENDCHAR
STARTCHAR 4
ENCODING 52
SWIDTH 108 0
DWIDTH 9 0
BBX 9 13 0 -3
BITMAP
0000
0000
0600
0e00
1600
2600
4600
7f00
7f00
0600
0600
0000
0000
ENDCHAR
STARTCHAR 5
ENCODING 53
SWIDTH 108 0
DWIDTH 9 0
BBX 9 13 0 -3
BITMAP
0000
0000
3f00
3f00
2000
2000
3e00
0300
0300
3300
1e00
0000
0000
ENDCHAR
STARTCHAR 6
ENCODING 54
SWIDTH 108 0
DWIDTH 9 0
BBX 9 13 0 -3
BITMAP
0000
0000
3e00
6300
6000
6000
7e00
6300
6300
6300
3e00
0000
0000
ENDCHAR
STARTCHAR 7
ENCODING 55
SWIDTH 108 0
DWIDTH 9 0
BBX 9 13 0 -3
BITMAP
0000
0000
7f00
7f00
0300
0600
0c00
1800
1800
3000
3000
0000
0000
ENDCHAR
STARTCHAR 8
ENCODING 56
SWIDTH 108 0
DWIDTH 9 0
BBX 9 13 0 -3
BITMAP
0000
0000
3e00
6300
6300
7300
3e00
6700
6300
6300
3e00
0000
0000
ENDCHAR
STARTCHAR 9
ENCODING 57
SWIDTH 108 0
DWIDTH 9 0
BBX 9 13 0 -3
BITMAP
0000
0000
3e00
6300
6300
6300
3f00
0300
0300
6300
3e00
0000
0000
ENDCHAR
STARTCHAR :
ENCODING 58
SWIDTH 48 0
DWIDTH 4 0
BBX 4 13 0 -3
BITMAP
00
00
00
00
60
60
00
00
00
60
60
00
00
ENDCHAR
STARTCHAR ;
ENCODING 59
SWIDTH 48 0
DWIDTH 4 0
BBX 4 13 0 -3
BITMAP
00
00
00
00
60
60
00
00
00
60
60
20
40
ENDCHAR
STARTCHAR <
ENCODING 60
SWIDTH 96 0
DWIDTH 8 0
BBX 8 13 0 -3
BITMAP
00
00
00
06
0c
18
30
18
0c
06
00
00
00
ENDCHAR
STARTCHAR =
ENCODING 61
SWIDTH 108 0
DWIDTH 9 0
BBX 9 13 0 -3
BITMAP
0000
0000
0000
0000
0000
7f00
0000
7f00
0000
0000
0000
0000
0000
ENDCHAR
STARTCHAR >
ENCODING 62
SWIDTH 96 0
DWIDTH 8 0
BBX 8 13 0 -3
BITMAP
00
00
00
30
18
0c
06
0c
18
30
00
00
00
ENDCHAR
STARTCHAR ?
ENCODING 63
SWIDTH 84 0
DWIDTH 7 0
BBX 7 13 0 -3
BITMAP
00
00
38
4c
0c
18
30
30
00
30
30
00
00
ENDCHAR
STARTCHAR @
ENCODING 64
SWIDTH 144 0
DWIDTH 12 0
BBX 12 13 0 -3
BITMAP
0000
0000
1f80
30c0
67c0
6cc0
6cc0
6cc0
6760
3000
1f80
0000
0000
ENDCHAR
STARTCHAR A
ENCODING 65
SWIDTH 108 0
DWIDTH 9 0
BBX 9 13 0 -3
BITMAP
0000
0000
0c00
0c00
1600
1600
2600
3f00
6300
6300
6300
0000
0000
ENDCHAR
STARTCHAR B
ENCODING 66
SWIDTH 108 0
DWIDTH 9 0
BBX 9 13 0 -3
BITMAP
0000
0000
3e00
3300
3300
3200
3c00
3200
3300
3300
3e00
0000
0000
ENDCHAR
STARTCHAR C
ENCODING 67
SWIDTH 108 0
DWIDTH 9 0
BBX 9 13 0 -3
BITMAP
0000
0000
1e00
3300
6000
6000
6000
6000
6000
3100
1e00
0000
0000
ENDCHAR
STARTCHAR D
ENCODING 68
SWIDTH 120 0
DWIDTH 10 0
BBX 10 13 0 -3
BITMAP
0000
0000
3e00
3300
3180
3180
3180
3180
3180
3300
3e00
0000
0000
ENDCHAR
STARTCHAR E
ENCODING 69
SWIDTH 96 0
DWIDTH 8 0
BBX 8 13 0 -3
BITMAP
00
00
3e
30
30
30
3c
30
30
30
3e
00
00
ENDCHAR
STARTCHAR F
ENCODING 70
SWIDTH 96 0
DWIDTH 8 0
BBX 8 13 0 -3
BITMAP
00
00
3e
30
30
30
3c
30
30
30
30
00
00
ENDCHAR
STARTCHAR G
ENCODING 71
SWIDTH 108 0
DWIDTH 9 0
BBX 9 13 0 -3
BITMAP
0000
0000
1e00
3300
6000
6000
6000
6300
6300
3300
1f00
0000
0000
ENDCHAR
STARTCHAR H
ENCODING 72
SWIDTH 120 0
DWIDTH 10 0
BBX 10 13 0 -3
BITMAP
0000
0000
3180
3180
3180
3180
3f80
3180
3180
3180
3180
0000
0000
ENDCHAR
STARTCHAR I
ENCODING 73
SWIDTH 60 0
DWIDTH 5 0
BBX 5 13 0 -3
BITMAP
00
00
30
30
30
30
30
30
30
30
30
00
00
ENDCHAR
STARTCHAR J
ENCODING 74
SWIDTH 60 0
DWIDTH 5 0
BBX 5 13 0 -3
BITMAP
00
00
30
30
30
30
30
30
30
30
30
e0
00
ENDCHAR
STARTCHAR K
ENCODING 75
SWIDTH 132 0
DWIDTH 11 0
BBX 11 13 0 -3
BITMAP
0000
0000
3180
3300
3200
3400
3c00
3600
3300
3180
30c0
0000
0000
ENDCHAR
STARTCHAR L
ENCODING 76
SWIDTH 96 0
DWIDTH 8 0
BBX 8 13 0 -3
BITMAP
00
00
30
30
30
30
30
30
30
30
3e
00
00
ENDCHAR
STARTCHAR M
ENCODING 77
SWIDTH 144 0
DWIDTH 12 0
BBX 12 13 0 -3
BITMAP
0000
0000
38e0
38e0
38e0
2d60
2d60
2d60
2660
2660
2060
0000
0000
ENDCHAR
STARTCHAR N
ENCODING 78
SWIDTH 120 0
DWIDTH 10 0
BBX 10 13 0 -3
BITMAP
0000
0000
3880
3880
2c80
2c80
2e80
2680
2680
2380
2180
0000
0000
ENDCHAR
STARTCHAR O
ENCODING 79
SWIDTH 120 0
DWIDTH 10 0
BBX 10 13 0 -3
BITMAP
0000
0000
1e00
3300
6180
6180
6180
6180
6180
3300
1e00
0000
0000
ENDCHAR
STARTCHAR P
ENCODING 80
SWIDTH 108 0
DWIDTH 9 0
BBX 9 13 0 -3
BITMAP
0000
0000
3e00
3300
3300
3300
3200
3c00
3000
3000
3000
0000
0000
ENDCHAR
STARTCHAR Q
ENCODING 81
SWIDTH 120 0
DWIDTH 10 0
BBX 10 13 0 -3
BITMAP
0000
0000
1e00
3300
6180
6180
6180
6180
6180
3300
1e00
0300
0180
ENDCHAR
STARTCHAR R
ENCODING 82
SWIDTH 120 0
DWIDTH 10 0
BBX 10 13 0 -3
BITMAP
0000
0000
3e00
3300
3300
3200
3c00
3600
3600
3300
3380
0000
0000
ENDCHAR
STARTCHAR S
ENCODING 83
SWIDTH 96 0
DWIDTH 8 0
BBX 8 13 0 -3
BITMAP
00
00
3c
66
60
70
3c
0e
06
66
3c
00
00
ENDCHAR
STARTCHAR T
ENCODING 84
SWIDTH 108 0
DWIDTH 9 0
BBX 9 13 0 -3
BITMAP
0000
0000
ff00
1800
1800
1800
1800
1800
1800
1800
1800
0000
0000
ENDCHAR
STARTCHAR U
ENCODING 85
SWIDTH 120 0
DWIDTH 10 0
BBX 10 13 0 -3
BITMAP
0000
0000
3180
3180
3180
3180
3180
3180
3180
1b00
0e00
0000
0000
ENDCHAR
STARTCHAR V
ENCODING 86
SWIDTH 120 0
DWIDTH 10 0
BBX 10 13 0 -3
BITMAP
0000
0000
6180
6180
6180
3100
3300
1a00
1a00
0c00
0c00
0000
0000
ENDCHAR
STARTCHAR W
ENCODING 87
SWIDTH 168 0
DWIDTH 14 0
BBX 14 13 0 -3
BITMAP
0000
0000
6018
6318
6318
6310
35b0
35a0
35a0
18c0
18c0
0000
0000
ENDCHAR
STARTCHAR X
ENCODING 88
SWIDTH 108 0
DWIDTH 9 0
BBX 9 13 0 -3
BITMAP
0000
0000
6300
6300
3200
1c00
0800
1c00
2600
6300
6300
0000
0000
ENDCHAR
STARTCHAR Y
ENCODING 89
SWIDTH 120 0
DWIDTH 10 0
BBX 10 13 0 -3
BITMAP
0000
0000
6180
6180
3100
3300
1a00
0c00
0c00
0c00
0c00
0000
0000
ENDCHAR
STARTCHAR Z
ENCODING 90
SWIDTH 96 0
DWIDTH 8 0
BBX 8 13 0 -3
BITMAP
00
00
7e
06
06
0c
18
30
60
60
7e
00
00
ENDCHAR
STARTCHAR [
ENCODING 91
SWIDTH 84 0
DWIDTH 7 0
BBX 7 13 0 -3
BITMAP
00
3c
30
30
30
30
30
30
30
30
30
3c
00
ENDCHAR
STARTCHAR \
ENCODING 92
SWIDTH 96 0
DWIDTH 8 0
BBX 8 13 0 -3
BITMAP
00
00
60
60
30
30
18
0c
0c
06
06
00
00
ENDCHAR
STARTCHAR ]
ENCODING 93
SWIDTH 60 0
DWIDTH 5 0
BBX 5 13 0 -3
BITMAP
00
f0
30
30
30
30
30
30
30
30
30
f0
00
ENDCHAR
STARTCHAR ^
ENCODING 94
SWIDTH 108 0
DWIDTH 9 0
BBX 9 13 0 -3
BITMAP
0000
0000
0800
1c00
1400
3600
2200
6300
4100
0000
0000
0000
0000
ENDCHAR
STARTCHAR _
ENCODING 95
SWIDTH 108 0
DWIDTH 9 0
BBX 9 13 0 -3
BITMAP
0000
0000
0000
0000
0000
0000
0000
0000
0000
0000
0000
0000
7f00
ENDCHAR
STARTCHAR `
ENCODING 96
SWIDTH 60 0
DWIDTH 5 0
BBX 5 13 0 -3
BITMAP
00
10
20
30
30
00
00
00
00
00
00
00
00
ENDCHAR
STARTCHAR a
ENCODING 97
SWIDTH 108 0
DWIDTH 9 0
BBX 9 13 0 -3
BITMAP
0000
0000
0000
0000
3c00
6600
0600
3e00
6600
6600
3b00
0000
0000
ENDCHAR
STARTCHAR b
ENCODING 98
SWIDTH 96 0
DWIDTH 8 0
BBX 8 13 0 -3
BITMAP
00
60
60
60
6c
76
66
66
66
66
7c
00
00
ENDCHAR
STARTCHAR c
ENCODING 99
SWIDTH 96 0
DWIDTH 8 0
BBX 8 13 0 -3
BITMAP
00
00
00
00
3c
66
60
60
60
62
3c
00
00
ENDCHAR
STARTCHAR d
ENCODING 100
SWIDTH 96 0
DWIDTH 8 0
BBX 8 13 0 -3
BITMAP
00
06
06
06
3e
66
66
66
66
6e
36
00
00
ENDCHAR
STARTCHAR e
ENCODING 101
SWIDTH 96 0
DWIDTH 8 0
BBX 8 13 0 -3
BITMAP
00
00
00
00
3c
66
66
7e
60
62
3c
00
00
ENDCHAR
STARTCHAR f
ENCODING 102
SWIDTH 84 0
DWIDTH 7 0
BBX 7 13 0 -3
BITMAP
00
1c
30
30
7c
30
30
30
30
30
30
00
00
ENDCHAR
STARTCHAR g
ENCODING 103
SWIDTH 96 0
DWIDTH 8 0
BBX 8 13 0 -3
BITMAP
00
00
00
00
3e
66
66
66
6e
36
06
66
3c
ENDCHAR
STARTCHAR h
ENCODING 104
SWIDTH 96 0
DWIDTH 8 0
BBX 8 13 0 -3
BITMAP
00
60
60
60
6c
76
66
66
66
66
66
00
00
ENDCHAR
STARTCHAR i
ENCODING 105
SWIDTH 48 0
DWIDTH 4 0
BBX 4 13 0 -3
BITMAP
00
60
60
00
60
60
60
60
60
60
60
00
00
ENDCHAR
STARTCHAR j
ENCODING 106
SWIDTH 60 0
DWIDTH 5 0
BBX 5 13 0 -3
BITMAP
00
30
30
00
30
30
30
30
30
30
30
30
e0
ENDCHAR
STARTCHAR k
ENCODING 107
SWIDTH 96 0
DWIDTH 8 0
BBX 8 13 0 -3
BITMAP
00
60
60
60
66
64
68
78
6c
66
66
00
00
ENDCHAR
STARTCHAR l
ENCODING 108
SWIDTH 48 0
DWIDTH 4 0
BBX 4 13 0 -3
BITMAP
00
60
60
60
60
60
60
60
60
60
60
00
00
ENDCHAR
STARTCHAR m
ENCODING 109
SWIDTH 144 0
DWIDTH 12 0
BBX 12 13 0 -3
BITMAP
0000
0000
0000
0000
6cc0
7760
6660
6660
6660
6660
6660
0000
0000
ENDCHAR
STARTCHAR n
ENCODING 110
SWIDTH 96 0
DWIDTH 8 0
BBX 8 13 0 -3
BITMAP
00
00
00
00
6c
76
66
66
66
66
66
00
00
ENDCHAR
STARTCHAR o
ENCODING 111
SWIDTH 96 0
DWIDTH 8 0
BBX 8 13 0 -3
BITMAP
00
00
00
00
3c
66
66
66
66
66
3c
00
00
ENDCHAR
STARTCHAR p
ENCODING 112
SWIDTH 96 0
DWIDTH 8 0
BBX 8 13 0 -3
BITMAP
00
00
00
00
6c
76
66
66
66
66
7c
60
60
ENDCHAR
STARTCHAR q
ENCODING 113
SWIDTH 96 0
DWIDTH 8 0
BBX 8 13 0 -3
BITMAP
00
00
00
00
3e
66
66
66
66
6e
36
06
06
ENDCHAR
STARTCHAR r
ENCODING 114
SWIDTH 84 0
DWIDTH 7 0
BBX 7 13 0 -3
BITMAP
00
00
00
00
6c
6c
70
60
60
60
60
00
00
ENDCHAR
STARTCHAR s
ENCODING 115
SWIDTH 84 0
DWIDTH 7 0
BBX 7 13 0 -3
BITMAP
00
00
00
00
3c
60
70
38
1c
0c
78
00
00
ENDCHAR
STARTCHAR t
ENCODING 116
SWIDTH 84 0
DWIDTH 7 0
BBX 7 13 0 -3
BITMAP
00
00
10
30
7c
30
30
30
30
30
1c
00
00
ENDCHAR
STARTCHAR u
ENCODING 117
SWIDTH 96 0
DWIDTH 8 0
BBX 8 13 0 -3
BITMAP
00
00
00
00
66
66
66
66
66
6e
36
00
00
ENDCHAR
STARTCHAR v
ENCODING 118
SWIDTH 96 0
DWIDTH 8 0
BBX 8 13 0 -3
BITMAP
00
00
00
00
66
66
66
34
34
18
18
00
00
ENDCHAR
STARTCHAR w
ENCODING 119
SWIDTH 120 0
DWIDTH 10 0
BBX 10 13 0 -3
BITMAP
0000
0000
0000
0000
c180
c980
6d00
6d00
3600
3600
3600
0000
0000
ENDCHAR
STARTCHAR x
ENCODING 120
SWIDTH 96 0
DWIDTH 8 0
BBX 8 13 0 -3
BITMAP
00
00
00
00
66
66
34
18
2c
66
66
00
00
ENDCHAR
STARTCHAR y
ENCODING 121
SWIDTH 96 0
DWIDTH 8 0
BBX 8 13 0 -3
BITMAP
00
00
00
00
66
66
66
34
34
18
18
10
30
ENDCHAR
STARTCHAR z
ENCODING 122
SWIDTH 84 0
DWIDTH 7 0
BBX 7 13 0 -3
BITMAP
00
00
00
00
7c
0c
1c
38
70
60
7c
00
00
ENDCHAR
STARTCHAR {
ENCODING 123
SWIDTH 84 0
DWIDTH 7 0
BBX 7 13 0 -3
BITMAP
00
1c
30
30
18
08
30
08
18
30
30
1c
00
ENDCHAR
STARTCHAR |
ENCODING 124
SWIDTH 60 0
DWIDTH 5 0
BBX 5 13 0 -3
BITMAP
00
00
30
30
30
30
30
30
30
30
30
30
00
ENDCHAR
STARTCHAR }
ENCODING 125
SWIDTH 60 0
DWIDTH 5 0
BBX 5 13 0 -3
BITMAP
00
e0
30
30
60
40
30
40
60
30
30
e0
00
ENDCHAR
STARTCHAR ~
ENCODING 126
SWIDTH 108 0
DWIDTH 9 0
BBX 9 13 0 -3
BITMAP
0000
0000
0000
0000
0000
3900
5d00
4e00
0000
0000
0000
0000
0000
ENDCHAR
ENDFONT
